# xmcd
#
# Track frame offsets:
#	150
#	13555
#	23619
#	35937
#	44492
#	56762
#	69005
#	79545
#	89057
#	99852
#	113265
#	124095
#	135162
#	147202
#	155830
#	165457
#	175159
#	191425
#	211075
#	225007
#	241607
#	256977
#	273317
#	299660
#	311527
#	323977
#	337712
#
# Disc length: 4667 seconds
#
# Revision: 0
# Processed by: cddbd v1.5.2PL0 Copyright (c) Steve Scherf et al.
# Submitted via: audiograbber 1.83.01
#
DISCID=5c12391b
DTITLE=Fats Domino - The Paramount Tapes - CD 2/2
DYEAR=1999
DGENRE=R&B
TTITLE0=Heartbreak hill
TTITLE1=(I met) the girl I'm gonna marry
TTITLE2=Why don't you do right
TTITLE3=Ballin' the jack
TTITLE4=Lazy lady
TTITLE5=Goodnight sweetheart
TTITLE6=Let me call you sweetheart
TTITLE7=That certain someone
TTITLE8=Nobody needs you like me
TTITLE9=Who cares
TTITLE10=Something you got baby
TTITLE11=If you don't know what love is
TTITLE12=Packin' up
TTITLE13=(All of my life) for you
TTITLE14=Sally was a good old girl
TTITLE15=A whole lot of trouble
TTITLE16=If I get rich
TTITLE17=My old time used to be
TTITLE18=Any old time
TTITLE19=Shame on you
TTITLE20=Sleeping on the job
TTITLE21=The girl I love (Version 2)
TTITLE22=I almost lost my mind
TTITLE23=Just can't get New Orleans (off my mind)
TTITLE24=Move with the groove
TTITLE25=Love me
TTITLE26=Something about you baby
EXTD=Repertoire Records
EXTT0=
EXTT1=
EXTT2=
EXTT3=
EXTT4=
EXTT5=
EXTT6=
EXTT7=
EXTT8=
EXTT9=
EXTT10=
EXTT11=
EXTT12=
EXTT13=
EXTT14=
EXTT15=
EXTT16=
EXTT17=
EXTT18=
EXTT19=
EXTT20=
EXTT21=
EXTT22=
EXTT23=
EXTT24=
EXTT25=
EXTT26=
PLAYORDER=
